HIERARCHY
ROOT root
{
	OFFSET 0.000000 0.000000 0.000000
	CHANNELS 6 Xposition Yposition Zposition Zrotation Yrotation Xrotation
	JOINT lhip
	{
		OFFSET 0.058581 -0.082280 -0.017664
		CHANNELS 3 Zrotation Yrotation Xrotation
		JOINT lknee
		{
			OFFSET 0.043451 -0.386469 0.008037
			CHANNELS 3 Zrotation Yrotation Xrotation
			JOINT lankle
			{
				OFFSET -0.014790 -0.426874 -0.037428
				CHANNELS 3 Zrotation Yrotation Xrotation
				JOINT ltoe
				{
					OFFSET 0.041054 -0.060286 0.122042
					CHANNELS 3 Zrotation Yrotation Xrotation
					End Site
					{
						OFFSET 0.000000 0.000000 0.000000
					}
				}
			}
		}
	}
	JOINT rhip
	{
		OFFSET -0.060310 -0.090513 -0.013543
		CHANNELS 3 Zrotation Yrotation Xrotation
		JOINT rknee
		{
			OFFSET -0.043257 -0.383688 -0.004843
			CHANNELS 3 Zrotation Yrotation Xrotation
			JOINT rankle
			{
				OFFSET 0.019056 -0.420046 -0.034562
				CHANNELS 3 Zrotation Yrotation Xrotation
				JOINT rtoe
				{
					OFFSET -0.034840 -0.062106 0.130323
					CHANNELS 3 Zrotation Yrotation Xrotation
					End Site
					{
						OFFSET 0.000000 0.000000 0.000000
					}
				}
			}
		}
	}
	JOINT lowerback
	{
		OFFSET 0.004439 0.124404 -0.038385
		CHANNELS 3 Zrotation Yrotation Xrotation
		JOINT upperback
		{
			OFFSET 0.004488 0.137956 0.026820
			CHANNELS 3 Zrotation Yrotation Xrotation
			JOINT chest
			{
				OFFSET -0.002265 0.056032 0.002855
				CHANNELS 3 Zrotation Yrotation Xrotation
				JOINT lowerneck
				{
					OFFSET -0.013390 0.211636 -0.033468
					CHANNELS 3 Zrotation Yrotation Xrotation
					JOINT upperneck
					{
						OFFSET 0.010113 0.088937 0.050410
						CHANNELS 3 Zrotation Yrotation Xrotation
						End Site
						{
							OFFSET 0.000000 0.000000 0.000000
						}
					}
				}
				JOINT lclavicle
				{
					OFFSET 0.071702 0.114000 -0.018898
					CHANNELS 3 Zrotation Yrotation Xrotation
					JOINT lshoulder
					{
						OFFSET 0.122921 0.045205 -0.019046
						CHANNELS 3 Zrotation Yrotation Xrotation
						JOINT lelbow
						{
							OFFSET 0.255332 -0.015649 -0.022946
							CHANNELS 3 Zrotation Yrotation Xrotation
							JOINT lwrist
							{
								OFFSET 0.265709 0.012698 -0.007375
								CHANNELS 3 Zrotation Yrotation Xrotation
								End Site
								{
									OFFSET 0.000000 0.000000 0.000000
								}
							}
						}
					}
				}
				JOINT rclavicle
				{
					OFFSET -0.082954 0.112472 -0.023707
					CHANNELS 3 Zrotation Yrotation Xrotation
					JOINT rshoulder
					{
						OFFSET -0.113228 0.046853 -0.008472
						CHANNELS 3 Zrotation Yrotation Xrotation
						JOINT relbow
						{
							OFFSET -0.260127 -0.014369 -0.031269
							CHANNELS 3 Zrotation Yrotation Xrotation
							JOINT rwrist
							{
								OFFSET -0.269108 0.006794 -0.006027
								CHANNELS 3 Zrotation Yrotation Xrotation
								End Site
								{
									OFFSET 0.000000 0.000000 0.000000
								}
							}
						}
					}
				}
			}
		}
	}
}
MOTION
Frames: 16
Frame Time: 0.033333
-1.148885 0.648038 0.546498 87.202840 -0.624564 44.843435 23.026164 8.774189 -44.350241 -7.993214 4.690085 81.262211 -6.000154 -3.394882 -4.056730 0.000000 -0.000000 0.000000 -19.416333 -10.743150 -47.995510 0.455063 -3.850007 79.554717 4.002657 2.276283 7.320926 0.000000 -0.000000 0.000000 -1.255007 1.375604 54.746712 0.101179 -1.835897 13.470476 1.189689 0.320441 -7.803043 -4.502173 2.411618 -23.183677 5.779440 -0.913903 -0.291924 -36.323719 -32.042029 7.816197 -28.106623 -13.373509 4.221327 34.663202 -69.757352 -10.940299 -15.877424 -11.699459 17.608166 38.967115 36.401693 17.095849 22.919110 21.617997 -1.636497 -15.725004 63.672538 1.642605 36.337248 8.763287 14.884171 
-1.150279 0.648794 0.545973 87.402889 -0.676234 44.303848 22.840152 9.110584 -43.937078 -8.193990 4.620667 81.208742 -6.027513 -3.550766 -3.907037 0.000000 -0.000000 0.000000 -19.715281 -11.471687 -47.451433 0.535257 -3.848636 79.401242 4.024391 2.548351 7.531921 0.000000 -0.000000 0.000000 -1.192340 1.629323 54.380571 0.211234 -1.985246 13.988839 1.249483 0.251114 -8.001566 -4.565323 2.096846 -22.048849 5.874259 -1.082350 -1.329338 -36.772459 -32.023206 8.220225 -27.303576 -13.304976 3.748537 32.075053 -69.699501 -7.553194 -18.541932 -10.571566 17.939707 39.346388 36.222260 17.587608 22.562393 21.011173 -2.151658 -15.551581 63.303632 2.560042 37.979314 7.695899 14.233295 
-1.150885 0.648901 0.546129 87.427426 -0.520050 43.693633 23.141884 9.512682 -43.296109 -8.564160 4.725574 81.101532 -5.938254 -3.909511 -3.809236 0.000000 -0.000000 0.000000 -19.916617 -11.995844 -46.680115 0.716881 -4.098165 79.343213 3.739180 2.932690 7.539529 0.000000 -0.000000 0.000000 -1.016990 1.846350 53.930990 0.385210 -2.054997 14.858395 1.482052 0.138517 -8.176815 -5.005349 1.674073 -20.679016 6.075492 -0.714127 -2.915279 -36.679652 -32.352013 8.363288 -27.526657 -12.988965 3.531162 31.045824 -69.842153 -6.197126 -22.296099 -7.159671 17.443661 39.309190 36.281363 17.841848 22.128076 20.689217 -2.771444 -14.562383 62.940735 3.487399 39.655148 5.838096 15.590929 
-1.151686 0.648417 0.545756 87.271042 -0.526626 43.537602 23.539102 10.000331 -42.949862 -8.704089 5.003530 80.962665 -5.589615 -3.912118 -3.743032 0.000000 -0.000000 0.000000 -19.821680 -12.211067 -46.609455 0.937354 -4.107383 79.451137 3.334219 3.154894 7.345716 0.000000 -0.000000 0.000000 -1.151004 1.768375 53.669100 0.244672 -2.029754 14.847704 1.383534 0.413582 -8.387714 -5.307993 1.836314 -19.858344 6.104771 -0.654023 -3.285744 -36.066171 -32.370852 8.092734 -28.081853 -12.583574 3.562950 28.924313 -69.598785 -3.494615 -24.355394 -5.899819 16.585252 39.032859 36.437573 18.248996 22.615641 20.446662 -2.940486 -14.303109 62.699018 5.231191 41.611738 4.935687 15.864473 
-1.152052 0.648258 0.545360 87.225013 -0.301611 43.417137 23.722711 10.405532 -42.902294 -8.713598 4.879582 81.009324 -5.467806 -4.153716 -3.289771 0.000000 -0.000000 0.000000 -19.668178 -12.686133 -46.524616 1.337624 -4.138545 79.634136 2.935186 3.381943 7.142918 0.000000 -0.000000 0.000000 -1.034361 1.751257 53.495281 0.205146 -2.084919 14.587035 1.412946 0.450587 -8.440363 -5.436714 1.723552 -18.911820 6.487066 -0.354923 -4.246807 -36.162692 -32.432138 8.570312 -27.884994 -12.249695 3.185357 27.566895 -69.302238 -1.897036 -24.149293 -5.803004 16.747782 39.356014 36.293401 18.950427 21.931466 20.362699 -3.639072 -11.521499 62.387664 8.697292 40.774661 4.266493 17.597647 
-1.152241 0.648062 0.545230 87.261794 -0.250272 43.338369 23.833256 10.706103 -42.865910 -9.140243 5.023148 81.103478 -5.351849 -4.821533 -3.371332 0.000000 -0.000000 0.000000 -19.797229 -12.895260 -46.420288 1.240627 -4.359591 79.626564 2.926682 3.443390 6.944443 0.000000 -0.000000 0.000000 -0.981401 1.918350 53.176853 0.227537 -2.081377 14.887900 1.383573 0.430475 -8.691527 -5.207740 1.721206 -18.811512 6.358399 -0.500536 -4.557850 -36.338118 -32.619700 8.815007 -27.638163 -12.113993 3.180981 27.416760 -68.639162 -1.995736 -24.114580 -6.408866 16.986940 39.709881 36.283807 19.228599 21.574203 20.170956 -3.637779 -10.866931 61.884946 9.468764 39.478623 4.563686 18.446065 
-1.152203 0.648406 0.545462 87.385428 -0.207118 43.286454 23.876705 10.588271 -42.702972 -8.881667 5.263753 80.940425 -5.590664 -4.142121 -3.200141 0.000000 -0.000000 0.000000 -20.051018 -13.149809 -46.223453 1.263597 -4.533548 79.615502 3.164117 3.627531 6.780540 0.000000 -0.000000 0.000000 -0.962303 2.000929 52.949724 0.175355 -2.051195 15.038108 1.509908 0.416373 -8.646262 -4.881385 0.938541 -18.763533 6.587701 -0.790707 -5.602354 -36.646703 -32.792207 9.061286 -27.440284 -11.973632 2.930872 27.971558 -68.658390 -3.013476 -24.502801 -5.482507 17.009592 39.535513 36.550732 19.476312 21.506761 19.850782 -3.834211 -11.107223 61.522462 8.794161 39.180378 4.389530 18.991481 
-1.152301 0.648432 0.545368 87.449540 -0.159865 43.413156 23.867921 10.557690 -42.864781 -8.786419 5.306866 80.999274 -5.661129 -4.319604 -3.158700 0.000000 -0.000000 0.000000 -20.112064 -13.269812 -46.399894 1.030465 -4.666813 79.769075 3.337674 3.843073 6.876507 0.000000 -0.000000 0.000000 -0.931678 1.972093 53.056371 0.011191 -1.987150 14.625998 1.427249 0.373156 -8.503426 -4.917426 1.170914 -19.042570 6.742861 -0.567310 -5.799405 -37.009863 -32.644826 9.334913 -26.820116 -12.117993 2.541113 28.298543 -68.686171 -3.884362 -24.623590 -5.572361 17.052043 39.657022 36.241785 19.381836 21.583731 20.014145 -3.933061 -10.542370 61.084722 9.086559 38.134557 4.763233 19.230353 
-1.152138 0.648584 0.545036 87.465659 -0.161544 43.574009 23.864106 10.571631 -43.041214 -9.006490 5.442952 81.027875 -5.456252 -4.782851 -3.237865 0.000000 -0.000000 0.000000 -20.076735 -13.428855 -46.641166 1.102015 -4.638153 79.814340 3.218046 3.840107 6.880941 0.000000 -0.000000 0.000000 -0.987051 1.979324 52.924046 -0.086462 -2.016517 14.690016 1.357788 0.526613 -8.574920 -4.995846 0.978565 -19.310530 6.989518 -0.703130 -6.244510 -37.022141 -32.528789 9.214236 -27.269148 -12.217925 2.625486 29.379841 -68.582246 -4.838129 -23.434910 -6.137051 16.755094 39.803965 36.206547 19.439482 21.762937 20.049276 -4.043406 -11.105228 60.743553 8.577821 38.009880 4.564358 19.598346 
-1.151598 0.648197 0.544936 87.416511 -0.116314 43.726993 24.075111 10.497777 -43.167768 -8.752235 5.560916 81.025826 -5.723450 -4.434134 -3.132188 0.000000 -0.000000 0.000000 -20.090071 -13.255711 -46.739407 1.032848 -4.884151 79.816790 3.128719 3.674203 6.891395 0.000000 -0.000000 0.000000 -1.040468 2.054195 52.686416 -0.111451 -1.949806 15.091279 1.267225 0.659767 -8.684964 -4.941599 1.169057 -19.840779 7.010412 -0.855053 -6.281381 -37.160928 -32.583339 9.316939 -27.316237 -12.342907 2.750045 30.904546 -68.640550 -6.023279 -22.481704 -6.998741 16.715965 39.912086 36.383094 19.420682 21.902206 19.793470 -3.737137 -12.263592 60.523377 7.961390 37.252973 4.926651 19.073055 
-1.151055 0.648262 0.544920 87.480426 -0.032631 43.911227 24.070042 10.484921 -43.416163 -8.660592 5.613617 81.075067 -5.471431 -4.528797 -3.207283 0.000000 -0.000000 0.000000 -20.113967 -13.328006 -46.811390 1.038272 -4.927283 79.818451 3.117197 3.631978 7.017539 0.000000 -0.000000 0.000000 -1.045190 2.021225 52.824193 -0.177133 -1.902546 14.800636 1.312257 0.722830 -8.582535 -4.896865 0.658986 -20.066398 7.143244 -0.767958 -6.488874 -37.111771 -32.568212 9.304751 -27.690548 -12.527955 2.700297 31.694694 -68.776786 -6.550906 -22.318211 -7.104703 16.839114 39.632157 36.697536 19.449866 22.355733 19.472510 -3.648385 -13.169499 60.627954 6.968384 39.163946 4.923731 18.984008 
-1.150320 0.648141 0.544968 87.499398 -0.079687 44.002496 24.034616 10.494753 -43.511634 -8.562307 5.627018 81.168423 -5.359912 -4.444661 -3.349671 0.000000 -0.000000 0.000000 -20.070458 -13.267389 -46.891901 1.031396 -4.792624 79.848201 3.162295 3.561464 6.902104 0.000000 -0.000000 0.000000 -1.178506 2.199863 53.016387 -0.151928 -1.846340 14.621630 1.364128 0.788178 -8.403608 -4.619915 0.569693 -20.339065 7.320095 -1.079423 -6.874071 -36.857053 -32.621133 9.140938 -28.001285 -12.814344 2.905316 31.972378 -68.652125 -6.596250 -20.102003 -8.751632 17.403332 39.185896 36.740505 19.024759 22.802396 19.429567 -3.518476 -13.166686 60.663858 7.263808 39.940938 4.922546 18.002549 
-1.149387 0.648351 0.545032 87.378334 0.015029 44.347265 24.163677 10.616077 -43.871965 -8.643103 5.607550 81.224381 -5.557733 -4.875861 -3.027372 0.000000 -0.000000 0.000000 -19.865114 -13.310218 -47.201077 0.905084 -4.853512 79.839552 3.213689 3.726534 6.826469 0.000000 -0.000000 0.000000 -1.095985 2.083542 53.562812 -0.236055 -1.695603 13.501983 1.452788 0.720033 -8.558371 -4.954776 -0.111587 -19.778705 7.862402 -0.961672 -6.930017 -37.224280 -32.491690 9.599863 -27.862611 -12.461964 2.558005 31.609705 -69.770270 -6.397225 -24.537360 -5.586502 15.744758 39.482304 36.464008 19.612557 22.936915 19.445302 -3.917438 -12.997904 60.969952 7.238380 40.415735 3.989569 18.497384 
-1.148922 0.648402 0.545219 87.363591 -0.071659 44.433343 24.062108 10.459277 -43.857181 -8.663505 5.579630 81.223295 -5.525342 -4.238574 -3.428904 0.000000 -0.000000 0.000000 -19.968999 -13.119220 -47.274689 0.886694 -4.949998 79.856721 3.260371 3.641264 6.634957 0.000000 -0.000000 0.000000 -1.130512 2.220049 53.733267 -0.278058 -1.679978 13.567196 1.477692 0.760132 -8.494254 -4.700920 -0.102932 -19.798917 7.596324 -1.287737 -7.529023 -37.048453 -32.680493 9.442549 -27.882772 -12.734484 2.609556 31.547935 -69.552345 -5.933261 -23.773959 -6.149420 15.763423 39.088685 36.606971 19.221523 23.175073 19.483602 -3.806697 -12.752803 61.003844 7.842483 39.971017 4.714053 18.073737 
-1.148153 0.648462 0.545218 87.361992 -0.203059 44.494917 24.043346 10.328992 -43.795324 -8.859204 5.534476 81.236851 -5.727964 -4.294442 -3.553900 0.000000 -0.000000 0.000000 -20.106257 -13.021439 -47.396233 0.959577 -4.988139 79.985205 3.189036 3.512056 6.556323 0.000000 -0.000000 0.000000 -1.186626 2.525822 53.527037 -0.178738 -1.667555 14.365779 1.459283 0.679964 -8.553057 -4.571147 0.413716 -20.608089 7.426799 -1.608298 -7.500434 -36.863102 -33.053162 9.393364 -27.971113 -12.942763 2.945054 33.135478 -68.932048 -7.666067 -19.591070 -8.791069 17.631880 38.861819 36.915600 18.567906 23.269328 19.239202 -3.121011 -13.382327 61.348165 7.294557 39.162788 5.290661 18.100218 
-1.147067 0.648270 0.545882 87.242425 -0.249652 44.687231 24.006078 10.580781 -43.908422 -8.748827 5.592720 81.412673 -5.350244 -4.525809 -3.672111 0.000000 -0.000000 0.000000 -20.039316 -12.812955 -47.511246 0.877550 -5.057416 79.936495 3.412447 3.472143 6.623613 0.000000 -0.000000 0.000000 -1.355919 2.475799 53.932795 -0.226496 -1.611521 13.756894 1.496755 0.799895 -8.609254 -4.491755 -0.164405 -20.379190 7.373372 -1.368314 -7.650623 -36.878288 -32.656755 9.266051 -28.155495 -13.084019 3.001973 32.247080 -69.250795 -7.115304 -19.933666 -8.409456 17.073953 38.944557 36.816543 18.673819 23.566776 19.368707 -2.986443 -13.438599 61.550000 7.038153 40.533550 5.365788 17.860019 
